<svg xmlns="http://www.w3.org/2000/svg" xmlns:xlink="http://www.w3.org/1999/xlink" width="9pt" height="9pt" viewBox="0 0 9 9" version="1.1">
<path style=" stroke:none;fill-rule:nonzero;fill:rgb(0%,0%,0%);fill-opacity:1;" d="M 7.03125 4.292969 L 2.832031 0.0898438 C 2.769531 0.03125 2.703125 0 2.625 0 C 2.546875 0 2.476562 0.03125 2.417969 0.0898438 L 1.964844 0.542969 C 1.90625 0.601562 1.875 0.671875 1.875 0.75 C 1.875 0.828125 1.90625 0.894531 1.964844 0.957031 L 5.507812 4.5 L 1.964844 8.042969 C 1.90625 8.101562 1.875 8.171875 1.875 8.25 C 1.875 8.328125 1.90625 8.398438 1.964844 8.457031 L 2.417969 8.90625 C 2.476562 8.96875 2.546875 8.996094 2.625 8.996094 C 2.703125 8.996094 2.769531 8.96875 2.832031 8.90625 L 7.03125 4.707031 C 7.09375 4.644531 7.121094 4.578125 7.121094 4.5 C 7.121094 4.421875 7.09375 4.351562 7.03125 4.292969 Z M 7.03125 4.292969 "/>
</svg>
