<svg xmlns="http://www.w3.org/2000/svg" width="8.438" height="14.5" viewBox="0 0 8.438 14.5">
  <defs>
    <style>
      .cls-1 {
        fill-rule: evenodd;
      }
    </style>
  </defs>
  <path id="right" class="cls-1" d="M910.272,8297.19a0.47,0.47,0,0,1,.145-0.33l6.762-6.77a0.468,0.468,0,0,1,.668,0l0.725,0.73a0.459,0.459,0,0,1,0,.67l-5.7,5.7,5.7,5.7a0.513,0.513,0,0,1,.145.34,0.47,0.47,0,0,1-.145.33l-0.725.73a0.468,0.468,0,0,1-.668,0l-6.762-6.77A0.47,0.47,0,0,1,910.272,8297.19Z" transform="translate(-910.281 -8289.94)"/>
</svg>
