<svg xmlns="http://www.w3.org/2000/svg" width="39" height="59" viewBox="0 0 39 59">
  <defs>
    <style>
      .cls-1 {
        fill: #00ff78;
        fill-rule: evenodd;
      }
    </style>
  </defs>
  <path class="cls-1" d="M1129.28,7013.18c-0.56-2.08-2.57-4.01-4.65-5.3,0.07-.02.13-0.03,0.2-0.05,2.73-.84,1.77-4.58,1.76-6.78-0.02-3.73.35-5.26-3.85-5.62-5.01-.44-10.02-0.41-15.04-0.44-2.94-.02-5.88-0.06-8.81.14-1.11.08-2.98-.08-3.78,0.94-1.25,1.57-.56,6.1-0.57,7.86-0.01,2.36.11,3.87,2.31,4.1-2.58,2.01-4.65,3.97-5.1,7.54-0.62,4.91-.31,10.12-0.37,15.06-0.1,7.63-2.68,21.69,8.16,23.05,5.4,0.68,11.13.05,16.58,0.16,3.59,0.07,8.14.69,10.6-2.44,2.81-3.59,3.31-9.32,3.23-13.68-0.09-4.28.04-8.56,0.04-12.84C1129.99,7021.09,1130.28,7016.88,1129.28,7013.18Zm-33.32-12.74c0.02-.68-0.17-2.23.18-2.85,0.91-1.61,5.11-1.24,6.6-1.27,3.62-.05,7.26.02,10.88,0.05,2.87,0.02,6.96-.48,9.69.44,2.16,0.74,1.9,2.06,1.91,3.82a19.211,19.211,0,0,1,.02,3.79c-0.44,2.16-1.82,2.17-3.79,2.24-1.54.06-3.07,0.14-4.6,0.14-6.34.02-12.73-.52-19.05-0.08C1095.04,7006.83,1095.9,7002.24,1095.96,7000.44Zm14.58,20.73c1.43-.03,4.53-0.74,5.86-0.19,0.59-.21.8-0.01,0.63,0.58,0.05,0.82.07,1.64,0.07,2.46-0.01,1.37-.09,2.74-0.19,4.11a75.49,75.49,0,0,0-.35,9.02c0.04,0.84.49,2.31,0.28,3.15-0.42,1.65-1.59,1.05-3.26.97q-5.115-.255-10.25-0.13c-3.5.09-7.31,0.82-10.7-.21,0-1.52.06-3.01,0.07-4.34,0.03-5.21.18-10.42,0.21-15.63C1098.79,7021,1104.66,7021.29,1110.54,7021.17Zm17.81,21.32c-0.49,2.9-1.24,7.86-4.19,9.41-2.15,1.13-5.74.64-8.04,0.6-5.53-.11-11.77.81-17.18-0.25-5.06-.99-6.12-5.43-6.28-9.93,3.63,0.97,7.59.23,11.31,0.15,4.49-.09,8.97.06,13.45,0.38a0.708,0.708,0,0,0,.69-0.67c0.28-3.31-.3-6.64-0.11-9.97a87.851,87.851,0,0,0,.3-11.92,0.692,0.692,0,0,0-.68-0.67c-8.25.08-16.45,0.04-24.7,0a18.893,18.893,0,0,1,.49-5.53c0.9-2.89,3.39-4.35,5.68-6.09,4.06-.21,8.24-0.11,12.28-0.02,2.57,0.05,5.11.19,7.67,0.11,0.96-.03,2.11.05,3.22,0.04,4.09,1.69,5.83,4.68,6.15,8.67,0.33,4.18.22,8.39,0.18,12.57C1128.56,7033.66,1129.07,7038.25,1128.35,7042.49Zm-28.2-38.8c-0.07-1.42-.1-2.84-0.08-4.27a0.686,0.686,0,0,0-1.37,0c-0.02,1.43.01,2.85,0.08,4.27C1098.83,7004.55,1100.2,7004.56,1100.15,7003.69Zm22.11,0c-0.08-1.42-.11-2.84-0.09-4.27a0.686,0.686,0,0,0-1.37,0c-0.02,1.43.01,2.85,0.09,4.27C1120.94,7004.55,1122.31,7004.56,1122.26,7003.69Zm-16.58,0c-0.08-1.42-.11-2.84-0.09-4.27a0.686,0.686,0,0,0-1.37,0c-0.02,1.43.01,2.85,0.09,4.27C1104.36,7004.55,1105.73,7004.56,1105.68,7003.69Zm11.05,0c-0.07-1.42-.1-2.84-0.08-4.27a0.686,0.686,0,0,0-1.37,0c-0.02,1.43.01,2.85,0.08,4.27C1115.41,7004.55,1116.78,7004.56,1116.73,7003.69Zm-5.52,0c-0.08-1.42-.11-2.84-0.09-4.27a0.686,0.686,0,0,0-1.37,0c-0.02,1.43.01,2.85,0.09,4.27C1109.88,7004.55,1111.25,7004.56,1111.21,7003.69Zm-11.23,33.59c1.56-.15,2.34-1.3,3.23-2.41,0.42-.54.97-1.14,1.54-1.78-0.17,2.17-.35,4.97,1.39,6.38,2.02,1.65,5.64.91,6.48-1.58a26.253,26.253,0,0,0,.72-5.07c0.24-1.85.97-4.24,0.31-6.07-0.88-2.43-3.37-3.13-5.6-2.34a4.547,4.547,0,0,0-4.15-2.07c-1.94.17-2.95,1.56-4.02,2.95-1.69,2.28-5.56,6.21-4.39,9.31A4.581,4.581,0,0,0,1099.98,7037.28Zm11.54-.94c-0.88,3.75-4.75,3.2-5.38-.54a16.5,16.5,0,0,1,.04-3.51,23.848,23.848,0,0,0,6.02.35C1111.99,7034.22,1111.68,7035.64,1111.52,7036.34Zm0.83-5.05a22.618,22.618,0,0,1-5.81-.3c1.32-1.69,2.34-3.54,1.98-5.35C1112.15,7024.15,1112.63,7027.78,1112.35,7031.29Zm-6.36-6.89c1.55,0.98,1.5,2.46.62,3.88a24.8,24.8,0,0,1-1.62,2.27,21.83,21.83,0,0,1-4.94-3.21c0.34-.46.67-0.91,1.01-1.37C1102.25,7024.41,1104.04,7023.16,1105.99,7024.4Zm-8.84,7.46a7.248,7.248,0,0,1,.74-1.33c0.43-.72.9-1.41,1.38-2.09a22.564,22.564,0,0,0,4.87,3.18c-0.75.91-1.51,1.8-2.22,2.7-0.85,1.07-2.78,2.25-4.05,1.08A5.074,5.074,0,0,1,1097.15,7031.86Zm21.71-21.78c-0.86-.15-1.23,1.14-0.36,1.29a7.145,7.145,0,0,1,5.24,3.35c1.03,1.84.84,4.1,0.94,6.14,0.04,0.86,1.41.86,1.37,0-0.12-2.52.03-5.16-1.47-7.35A8.5,8.5,0,0,0,1118.86,7010.08Zm6.49,12.97a0.67,0.67,0,0,0,0,1.34A0.67,0.67,0,0,0,1125.35,7023.05Z" transform="translate(-1091.03 -6995)"/>
</svg>
