<svg xmlns="http://www.w3.org/2000/svg" width="47" height="64" viewBox="0 0 47 64">
  <defs>
    <style>
      .cls-1 {
        fill: #00ff78;
        fill-rule: evenodd;
      }
    </style>
  </defs>
  <path id="Shape_4_copy" data-name="Shape 4 copy" class="cls-1" d="M1433.44,7032.32c0.06-8.93,1.34-17.92-.18-26.79-0.62-3.57-1.87-3.32-5.39-3.37-3.44-.05-6.88-0.03-10.31-0.15a0.371,0.371,0,0,0-.09.02c-0.52-.32-1.07-0.63-1.62-0.99-1.77-1.14-.82-1.24-0.56-3.1a4.464,4.464,0,0,0-.62-3.29c-1.59-2.16-5.84-2.03-7.83-.55-2.28,1.7-.7,3.47-1.23,5.52-0.24.91-2.2,1.49-3.31,2.31a0.611,0.611,0,0,0-.13-0.03c-3.81.08-9.2-.75-12.82,0.71-1.63.66-1.9,1.64-2.04,3.28-0.25,2.84-.14,5.8-0.21,8.65-0.16,7.64-.12,15.27-0.04,22.9q0.06,4.4.13,8.79c0.03,2.27-.41,5.21.63,7.32,2.04,4.17,7.26,3.37,11.11,3.42,6.79,0.1,13.57-.27,20.36-0.22,2.7,0.03,5.38-.26,8.07-0.24,2.21,0.01,3.82.21,5.13-1.84,1.66-2.59.9-6.59,0.93-9.49C1433.46,7040.89,1433.41,7036.61,1433.44,7032.32Zm-26.55-31.31a0.727,0.727,0,0,0,.33-0.81c-0.44-2.09-1.17-4.38,1.5-5.4,1.6-.62,4.39-0.44,5.11,1.46,0.44,1.15-.27,2.75-0.78,3.77a0.726,0.726,0,0,0,.12.87c1.66,1.37,4.15,2.14,5.44,3.85a3.156,3.156,0,0,1,.72,2.6c-0.66,2.71-3.58,2.3-5.83,2.33-2.77.02-5.55,0.09-8.33,0.09a8.622,8.622,0,0,1-2.59-.07c-1.53-.61-1.07-0.75-1.28-2a14.567,14.567,0,0,1-.02-2.09C1401.58,7003.25,1404.95,7001.92,1406.89,7001.01Zm14.07,6.98c1.35,0.04,2.72.18,4.06,0.16a6.252,6.252,0,0,0,1.46.04,5.571,5.571,0,0,1,.04,1.78q0.045,3.96.06,7.92,0.075,11.31.05,22.61c-0.01,2.65-.01,5.3-0.08,7.95a5.347,5.347,0,0,1-.06,1.75c-0.67.64-4.42,0.03-5.45,0.12a86.511,86.511,0,0,1-9.25.41c-3.47-.09-6.84.16-10.33,0.18-2.15.01-6.02,0.57-6.91-1.5-0.53-1.24-.37-3.2-0.45-4.53-0.39-6.83-.08-13.66-0.29-20.48-0.03-3.1.08-6.17,0.11-9.27,0.01-1.24-.77-5.53-0.09-6.6,0.59-.92,4.2-0.68,5.95-0.58,0.03,1.28.26,2.55,1.31,3.06,1.89,0.91,5.6.12,7.59,0.1,2.54-.02,5.07.03,7.61-0.05C1419.52,7010.95,1420.97,7010.42,1420.96,7007.99Zm11.21,17.95c-0.31,6.84-.14,13.7-0.22,20.55-0.04,3.75.79,8.31-4.1,8.58-2.28.13-4.58,0.24-6.87,0.25-5.03.02-10.03,0.08-15.06,0.2-2.82.06-5.65,0.04-8.48-.01a23.45,23.45,0,0,1-4.74-.13c-4.25-1.03-3.98-4.49-4.03-7.88-0.05-2.65-.09-5.31-0.12-7.96-0.08-5.93-.12-11.87-0.08-17.8,0.02-3.28.06-6.55,0.16-9.83,0.05-1.73-.49-5.03.22-6.63,1.16-2.59,8.23-2.08,11.96-1.96a4.382,4.382,0,0,0-.9,1.95,0.593,0.593,0,0,0-.09.34c0,0.26-.01.57-0.02,0.9-1.91-.12-5.17-0.5-6.51.26-1.4.79-.9,2.59-0.86,3.99,0.14,4.54-.12,9.09-0.08,13.64,0.22,7.22-.15,14.46.37,21.68,0.13,1.7-.04,4.35,1.4,5.51,0.7,0.57,3.12.57,4.13,0.66a41.153,41.153,0,0,0,5.77.01c3.87-.22,7.74-0.37,11.6-0.3,3.14,0.06,6.24-.14,9.38-0.26,1.12-.05,2.32-0.02,2.89-1.1,0.71-1.32.16-4.37,0.17-5.78,0.07-8.55.03-17.1-.01-25.65-0.02-3.35.09-6.73-.09-10.07-0.18-3.26-4.41-2.63-7.14-2.59-0.04-.26-0.09-0.53-0.16-0.82a4.241,4.241,0,0,0-1.18-2.19c1.27,0.02,2.54.03,3.8,0.05,1.32,0.01,2.64.03,3.97,0.04,2.58,0.04,3.79-.3,4.6,2.32C1433.73,7011.96,1432.45,7019.72,1432.17,7025.94Zm-20.39-8.06a39.893,39.893,0,0,0-6.65-.07c-0.92.1-.93,1.54,0,1.44a38.847,38.847,0,0,1,6.65.08,17.209,17.209,0,0,0,3.13-.19,27.865,27.865,0,0,1,4.66.08,0.725,0.725,0,0,0,0-1.45c-1.14-.04-2.26-0.25-3.4-0.22C1414.69,7017.6,1413.28,7017.97,1411.78,7017.88Zm-6.9,7.72a0.72,0.72,0,0,0,0,1.44c2.6-.08,5.19-0.11,7.79.03a58.678,58.678,0,0,0,7.15-.16c0.94-.06.94-1.51,0-1.45C1414.85,7025.79,1409.89,7025.44,1404.88,7025.6Zm15.12,7.71c-2.62.11-5.24,0.18-7.86,0.14-2.64-.04-5.06-0.33-7.62.34a0.721,0.721,0,0,0,.38,1.39c2.69-.7,5.43-0.3,8.18-0.28,2.31,0.02,4.61-.05,6.92-0.14A0.726,0.726,0,0,0,1420,7033.31Zm-0.04,7.95c-5.14.67-10.21-.92-15.27,0.01-0.92.17-.53,1.55,0.38,1.39,4.9-.9,9.9.7,14.89,0.05C1420.88,7042.59,1420.89,7041.14,1419.96,7041.26Zm-17.86-23.24a8.484,8.484,0,0,0-1.33-.04,0.72,0.72,0,0,0,0,1.44,9.9,9.9,0,0,1,1.33.04C1403.03,7019.57,1403.02,7018.12,1402.1,7018.02Zm-1.43,9.06c0.03-.01.68-0.04,0.55-0.19v-0.02a0.8,0.8,0,0,0,1.14-.12v-0.01a0.7,0.7,0,0,0-.11-0.87c-0.42-.48-1.43-0.31-1.96-0.18A0.721,0.721,0,0,0,1400.67,7027.08Zm1.19,6.84c-0.43,0-.87-0.01-1.3-0.01a0.72,0.72,0,0,0,0,1.44c0.43,0,.87.01,1.3,0.01A0.72,0.72,0,0,0,1401.86,7033.92Zm-0.08,7.39c-0.4.01-.8,0.03-1.2,0.04a0.72,0.72,0,0,0,0,1.44c0.4-.01.8-0.03,1.2-0.04A0.72,0.72,0,0,0,1401.78,7041.31Zm8.54-43.11h0.03a0.725,0.725,0,0,0,0-1.45h-0.03A0.725,0.725,0,0,0,1410.32,6998.2Zm-6.15,9.35a3.362,3.362,0,0,1,.22-1.84,3.483,3.483,0,0,1,1.42-1.12c0.85-.4.11-1.64-0.73-1.24a4.862,4.862,0,0,0-1.97,1.65c-0.55.81-.32,1.64-0.4,2.55C1402.64,7008.48,1404.1,7008.47,1404.17,7007.55Zm3.08-3.79a0.72,0.72,0,0,0,0-1.44A0.72,0.72,0,0,0,1407.25,7003.76Z" transform="translate(-1387 -6993)"/>
</svg>
