<svg id="Группа_1" data-name="Группа 1" xmlns="http://www.w3.org/2000/svg" width="289.03" height="234" viewBox="0 0 289.03 234">
  <defs>
    <style>
      .cls-1 {
        fill-rule: evenodd;
        opacity: 0.05;
      }
    </style>
  </defs>
  <path id="symbol" class="cls-1" d="M1486.35,7960.99q25.17,0,42.42-17.18t17.25-42.25q0-26.91-17.25-43.17t-42.42-16.25a53.26,53.26,0,0,0-34.5,12.07,61.333,61.333,0,0,1-2.8-19.5q0-26.925,20.98-52.93,20.985-25.98,49.88-38.07l-8.39-16.71q-48.495,22.29-72.26,59.43t-23.77,83.56q0,36.225,15.85,61.29,18.63,29.73,55.01,29.71h0Zm-158.5,0q25.17,0,42.42-17.18t17.25-42.25q0-26.91-17.25-43.17t-42.42-16.25a53.3,53.3,0,0,0-34.5,12.07,61.617,61.617,0,0,1-2.8-19.5q0-26.925,20.98-52.93,20.985-25.98,49.88-38.07l-8.39-16.71q-48.48,22.29-72.26,59.43t-23.77,83.56q0,36.225,15.85,61.29,18.645,29.73,55.01,29.71h0Z" transform="translate(-1257 -7727)"/>
</svg>
