<svg xmlns="http://www.w3.org/2000/svg" width="8" height="14.03" viewBox="0 0 8 14.03">
  <defs>
    <style>
      .cls-1 {
        fill-rule: evenodd;
      }
    </style>
  </defs>
  <path id="left" class="cls-1" d="M978.915,8297.92a0.5,0.5,0,0,0-.138-0.32l-6.411-6.54a0.428,0.428,0,0,0-.633,0l-0.688.7a0.476,0.476,0,0,0-.138.32,0.5,0.5,0,0,0,.138.33l5.407,5.51-5.407,5.52a0.5,0.5,0,0,0-.138.33,0.476,0.476,0,0,0,.138.32l0.688,0.7a0.428,0.428,0,0,0,.633,0l6.411-6.54A0.5,0.5,0,0,0,978.915,8297.92Z" transform="translate(-970.906 -8290.91)"/>
</svg>
