<svg xmlns="http://www.w3.org/2000/svg" width="63.156" height="62.97" viewBox="0 0 63.156 62.97">
  <defs>
    <style>
      .cls-1 {
        fill: #00ff78;
        fill-rule: evenodd;
      }
    </style>
  </defs>
  <path class="cls-1" d="M538.878,6993.07c-1.161.2-1.77,1.28-2.39,2.14-0.637.88-1.159,1.84-1.77,2.73-1.319,1.94-2.646,2.21-4.9,2.41a93.263,93.263,0,0,1-10.033.1c-1.718-.04-3.732-0.47-4.35,1.52-1.162,3.75,4.95,3.7,8.9,3.42-3.764,7.15-6.911,14.5-9.948,21.97-1.554-.4-3.05-0.74-4.4-1.01-4.362-.93-9.237-2.2-13.946-2.43-1.4-5.88-3.114-11.67-4.55-17.54-0.006-.03-0.022-0.04-0.029-0.07,1.872-.18,3.762-0.11,5.6-0.44,3.322-.59,2.519-4.31-0.6-4.56a47.693,47.693,0,0,1-7.676-.97,19.336,19.336,0,0,0-7.143-.84,0.774,0.774,0,0,0-.39.04,0.713,0.713,0,0,0-.438.24,3.962,3.962,0,0,0-.461,6.46c1.393,1.17,4.023,1.48,5.754,1.26,0.182-.02.361-0.07,0.541-0.1,1.282,5.62,2.683,11.21,4.054,16.81a15.03,15.03,0,0,0-8.757,4.68,13.388,13.388,0,0,0,2.889,20.6,17.505,17.505,0,0,0,3.107,1.54,3.255,3.255,0,0,0-1.181,1.61c-0.533,1.68.693,2.99,2.322,3.3a3.135,3.135,0,0,0,3.61-2,2.815,2.815,0,0,0-.064-1.67,42.092,42.092,0,0,0,5.833.54c6.675,0.22,13.6.26,20.264-.19,1.446-.09,3.088-0.17,4.766-0.32a3.054,3.054,0,0,0-.18.34c-0.534,1.68.693,2.99,2.322,3.3a3.135,3.135,0,0,0,3.61-2,2.96,2.96,0,0,0-.441-2.42,16.218,16.218,0,0,0,2.6-.82c3.066-1.3,3.8-5.02,3.312-7.99-1.11-6.83-7.779-11.03-14.7-13.59,3.209-8.01,6.131-16.1,10.141-23.77,2.234,0.11,4.593.02,6.086-1.39,1.36-1.29,2.514-3.67,3.521-5.26,0.534-.84,1.753-2.32,1.722-3.36A2.233,2.233,0,0,0,538.878,6993.07Zm-55.372,12.65c-1.683-.46-4.6-3.52-1.8-4.56,2.884-.45,5.472.62,8.24,1.17,1.254,0.25,4.477.08,5.524,0.7,1.977,1.18-1.67,1.32-2.573,1.4a31.858,31.858,0,0,0-4.128.64C487.007,7005.49,485.372,7006.23,483.506,7005.72Zm4.785,1.25c0.494-.15.987-0.3,1.487-0.41,0.02,0,.039-0.01.058-0.01a0.828,0.828,0,0,0,.011.27c1.4,5.71,3.053,11.36,4.431,17.07q-0.95.015-1.883,0.09C491.009,7018.32,489.59,7012.65,488.291,7006.97Zm2.762,46.52a1.446,1.446,0,0,1-1.769.78c-0.768-.2-1.186-0.7-0.759-1.45a2.09,2.09,0,0,1,1.407-.94,0.594,0.594,0,0,0,.133.06A1.281,1.281,0,0,1,491.053,7053.49Zm36.551,0a1.446,1.446,0,0,1-1.769.78c-0.768-.2-1.186-0.7-0.759-1.45a1.9,1.9,0,0,1,.989-0.8c0.186-.03.375-0.05,0.561-0.08A1.287,1.287,0,0,1,527.6,7053.49Zm5.491-8.57c-0.467,5.41-7.158,5.15-11.467,5.72-5.555.74-11.269,0.44-16.864,0.51-9.567.12-27.667-1.04-24.57-15.37,3.015-13.96,19.434-9.93,29.336-7.81C517.517,7029.54,534.011,7034.28,533.1,7044.92Zm-14.671-16.36q-1.207-.405-2.4-0.75a232.892,232.892,0,0,1,10.241-22.48c0.016-.03.014-0.06,0.027-0.09,0.328-.03.62-0.05,0.82-0.05,0.378,0,.783.03,1.2,0.05C524.451,7012.78,521.568,7020.71,518.424,7028.56Zm19.874-30.71a26.1,26.1,0,0,1-2.323,3.38c-1.868,2.14-3.894,2.4-6.3,2.36h-0.015c-0.8-.02-1.648-0.06-2.544-0.08-2.156.07-4.332,0.03-6.487-.03-1.41-.04-4.711-0.35-1.746-1.38,1.3-.46,4.018.07,5.376,0.04,2.031-.03,4.071-0.05,6.1-0.12a6.83,6.83,0,0,0,3.725-.77c1.737-1.12,2.016-3.44,3.5-4.67C540.843,6993.91,538.713,6997.19,538.3,6997.85Zm-32.451,32.03a0.761,0.761,0,0,0-.2.75c0,0.01.008,0.02,0.012,0.04a0.705,0.705,0,0,0,.065.17,0.85,0.85,0,0,0,.3.36c0.749,0.49,1.461,1.03,2.163,1.58l-2.5,1.2c-1.083-2.7-3.536-4.46-7.637-5.43-5.607-.99-11.6,3.29-12.835,8.73-1.388,6.1,3.169,10.79,8.99,11.72,6.031,0.97,10.681-1.67,11.8-7.78a15.564,15.564,0,0,0,.158-5.61c1.158-.55,2.313-1.1,3.469-1.66,0.522,0.44,1.044.88,1.569,1.31a0.871,0.871,0,0,0,.979.1,0.855,0.855,0,0,0,.37-0.18c0.677-.57,2.384-1.44,2.106-2.54-0.26-1.03-2.052-1.94-2.862-2.55a11.281,11.281,0,0,0-3.31-1.94C507.334,7027.84,506.539,7029.17,505.847,7029.88Zm-1.359,9.89c-0.6,5.36-3.895,8.29-9.387,7.64-5.019-.59-9.408-4.18-8.252-9.68,0.938-4.47,6.047-8.39,10.744-7.56,2.643,0.63,5.7,1.26,6.729,4.25,0.018,0.06.021,0.12,0.037,0.18a73.375,73.375,0,0,1-8.466,3.46,0.841,0.841,0,0,0,.452,1.62,74.247,74.247,0,0,0,8.285-3.36A21.216,21.216,0,0,1,504.488,7039.77Zm8.272-6.92c-0.294.26-.617,0.51-0.93,0.75-1.35-1.12-2.695-2.25-4.126-3.27a1.363,1.363,0,0,1,.577-0.4,6.048,6.048,0,0,1,1.7.94A25.412,25.412,0,0,1,512.76,7032.85Zm14.549,9.55a0.851,0.851,0,0,0,1.7,0,7.173,7.173,0,0,0-2.725-5.83c-0.847-.66-2.057.52-1.2,1.19A5.6,5.6,0,0,1,527.309,7042.4Zm-0.143,2.17a0.84,0.84,0,0,0,0,1.68A0.84,0.84,0,0,0,527.166,7044.57Z" transform="translate(-478.344 -6993.03)"/>
</svg>
