<svg xmlns="http://www.w3.org/2000/svg" width="60.188" height="42.97" viewBox="0 0 60.188 42.97">
  <defs>
    <style>
      .cls-1 {
        fill: #00ff78;
        fill-rule: evenodd;
      }
    </style>
  </defs>
  <path class="cls-1" d="M840.186,7029a0.462,0.462,0,0,0-.041-0.2,0.5,0.5,0,0,0-.044-0.11,0.152,0.152,0,0,1-.006-0.02c-3.248-4.25-6.57-8.46-10.1-12.49-3.2-3.65-6.668-7.97-10.834-10.57-6.095-3.8-14.1-2.08-21.337-.01-0.009-.01-0.007-0.03-0.018-0.05-1.093-1.86-2.751-2.97-4.992-2.34a2.738,2.738,0,0,0-2.029,1.88,2.588,2.588,0,0,0,1.02,2.25c-13.293,1.27-16.478,23.68-3.609,30.46,3.828,2.02,7.146,3.1,11.439,1.68,0.195-.07.357-0.16,0.541-0.23a0.691,0.691,0,0,0,.331-0.08c3.108-1.57,6.3-2.97,9.406-4.54a0.041,0.041,0,0,1,.023-0.02c4.38,3.91,8.9,7.7,13.575,11.25a0.548,0.548,0,0,0,.723-0.01c5.362-2.53,10.226-5.82,15.615-8.27a0.652,0.652,0,0,0,.34-0.58c-0.14-2.66-.017-5.33,0-7.99C840.188,7029.01,840.186,7029.01,840.186,7029Zm-20.173-21.05c7.122,5.89,12.94,13.6,18.5,20.89a43.017,43.017,0,0,1-7.129,3.64c-1.079.46-2.164,0.9-3.225,1.39-0.733.34-3.1,2.1-3.836,1.91-1.085-.28-3.087-3.41-3.845-4.24q-2.457-2.715-4.9-5.44c-3.26-3.66-6.5-7.33-9.572-11.14-2.331-2.9-4.33-5.57-8.037-6.82a18.334,18.334,0,0,0-2.12-.55C803.988,7005.18,813.456,7002.54,820.013,7007.95Zm-27.706-2.9c0.336-.66,1.683-0.72,2.287-0.63a3.152,3.152,0,0,1,1.872,1.58q-1.625.48-3.171,0.93a0.738,0.738,0,0,0-.132-0.18C792.73,7006.35,791.972,7005.72,792.307,7005.05Zm-8.228,27.65c-4.93-6.31-3.921-19.02,4.02-22.8a11.887,11.887,0,0,1,1.646-.63,0.942,0.942,0,0,0,.168,0c0.252-.07.518-0.14,0.776-0.21a12.578,12.578,0,0,1,11.039,2.84c2.448,2.3,4.381,5.36,6.555,7.91,4.974,5.85,10.177,11.5,15.324,17.2-0.054,2.31-.239,4.62-0.367,6.93-5.789-4.46-11.327-9.27-16.665-14.24a0.68,0.68,0,0,0-.352-0.17,0.562,0.562,0,0,0-.725.31h0c-0.009.02-.006,0.04-0.014,0.06a0.861,0.861,0,0,0-.043.1h-0.011c-1.388,5.08-4.3,9.14-10.278,8.87C791.174,7038.7,786.43,7035.71,784.079,7032.7Zm20.429,3.04a16.556,16.556,0,0,0,1.929-4.33q1.206,1.125,2.427,2.22Q806.7,7034.71,804.508,7035.74Zm30.33,2.87c-3.416,1.92-6.722,3.83-10.237,5.54,0.124-2.33.312-4.66,0.372-6.99,4.424-2.68,9.452-4.14,13.824-6.89-0.024,1.54-.061,3.09-0.046,4.63C838.772,7037.21,836.7,7037.56,834.838,7038.61ZM807.3,7014.15c0,0.01,0,.01.007,0.02a0.726,0.726,0,0,0,.1.18c1.576,1.83,2.147,3.6,4.558,2.7,3.554-1.34,7.267-2.34,10.719-3.93a0.675,0.675,0,0,0,.139-1.06c-1.787-1.82-2.6-3.54-5.063-2.62-3.355,1.26-6.841,2.23-10.072,3.79a0.046,0.046,0,0,0-.034.01c-0.035.02-.073,0.03-0.109,0.05a0.565,0.565,0,0,0-.287.77A0.576,0.576,0,0,0,807.3,7014.15Zm11.087-3.49c1.134-.12,2.035.78,2.8,1.62-2.735,1.15-5.613,1.83-8.366,2.93a8.315,8.315,0,0,1-2.107.9,7.078,7.078,0,0,1-1.766-1.97c2.258-1.02,4.618-1.74,6.963-2.56A12.586,12.586,0,0,1,818.386,7010.66Zm-23.713,4.75c-4.676-.76-6.7,2.35-7.26,6.39-0.644,4.66.367,8.17,5.2,9.77C802.124,7034.72,803.713,7017.24,794.673,7015.41Zm-1.7,14.86c-3.534-1.03-4.6-3.49-4.371-6.8,0.23-3.34,1.13-7.5,5.705-6.75,3.4,0.68,4.991,3.88,4.942,7.01C799.192,7027.48,797.664,7031.64,792.974,7030.27Zm32.468,3.53a98.592,98.592,0,0,1,10.4-4.69c0.815-.31.46-1.62-0.365-1.3a102.279,102.279,0,0,0-10.726,4.82C823.967,7033.04,824.66,7034.2,825.442,7033.8Zm-38.037-21.54c-3.452,2.49-4.869,6.3-4.937,10.42a0.687,0.687,0,0,0,1.373,0c0.059-3.6,1.217-7.06,4.256-9.25C788.8,7012.92,788.119,7011.75,787.405,7012.26Zm2.434,0.02a0.675,0.675,0,0,0,0-1.35A0.675,0.675,0,0,0,789.839,7012.28Z" transform="translate(-780 -7003.03)"/>
</svg>
